<svg xmlns="http://www.w3.org/2000/svg" width="52.31" height="52.31" viewBox="0 0 52.31 52.31"><defs><style>.cls-1{fill:#d1d1d1;}</style></defs><g id="レイヤー_2" data-name="レイヤー 2"><g id="レイアウト"><path id="FULL_COLOR_ICON" data-name="FULL COLOR ICON" class="cls-1" d="M41,52.31H11.33A11.34,11.34,0,0,1,0,41V11.33A11.33,11.33,0,0,1,11.33,0H41A11.34,11.34,0,0,1,52.31,11.33V41A11.34,11.34,0,0,1,41,52.31Zm4.14-28.46c0-8.52-8.54-15.45-19-15.45S7,15.33,7,23.85C7,31.49,13.8,37.89,23,39.1c.62.13,1.46.41,1.68.94a4,4,0,0,1,.06,1.72s-.22,1.34-.27,1.63c-.08.48-.38,1.88,1.65,1S37,38,41,33.36h0c2.76-3,4.08-6.1,4.08-9.51M22.2,19.73H20.86a.38.38,0,0,0-.37.38V28.4a.37.37,0,0,0,.37.37H22.2a.37.37,0,0,0,.37-.37V20.11a.38.38,0,0,0-.37-.38m9.19,0H30.06a.37.37,0,0,0-.37.38V25L25.88,19.9l0,0h0l0,0h0l0,0h0l0,0H24.24a.37.37,0,0,0-.37.38V28.4a.36.36,0,0,0,.37.37h1.33A.37.37,0,0,0,26,28.4V23.47l3.8,5.15.1.09h1.54a.36.36,0,0,0,.37-.37V20.11a.37.37,0,0,0-.37-.38M19,26.7H15.35V20.11a.38.38,0,0,0-.37-.38H13.64a.38.38,0,0,0-.37.38V28.4h0a.4.4,0,0,0,.1.26h0a.36.36,0,0,0,.25.1H19a.37.37,0,0,0,.37-.37V27.07A.37.37,0,0,0,19,26.7m19.79-4.89a.37.37,0,0,0,.37-.37V20.11a.38.38,0,0,0-.37-.38H33.43a.33.33,0,0,0-.25.11h0a.36.36,0,0,0-.11.26h0V28.4h0a.36.36,0,0,0,.11.26h0a.36.36,0,0,0,.25.1h5.34a.37.37,0,0,0,.37-.37V27.07a.37.37,0,0,0-.37-.37H35.14V25.29h3.63a.37.37,0,0,0,.37-.37V23.59a.38.38,0,0,0-.37-.38H35.14v-1.4Z"/></g></g></svg>