<svg xmlns="http://www.w3.org/2000/svg" width="51.22" height="51.22" viewBox="0 0 51.22 51.22"><defs><style>.cls-1{fill:#d1d1d1;}</style></defs><g id="レイヤー_2" data-name="レイヤー 2"><g id="レイアウト"><path class="cls-1" d="M4.64,15.2a14.33,14.33,0,0,1,.88-4.79,8,8,0,0,1,1.93-3,8,8,0,0,1,3-1.93,14.33,14.33,0,0,1,4.79-.88H36a14.33,14.33,0,0,1,4.79.88,8,8,0,0,1,3,1.93,8,8,0,0,1,1.93,3,14.33,14.33,0,0,1,.88,4.79V36a14.33,14.33,0,0,1-.88,4.79,8.57,8.57,0,0,1-4.89,4.89,14.33,14.33,0,0,1-4.79.88H15.2a14.33,14.33,0,0,1-4.79-.88,8,8,0,0,1-3-1.93,8,8,0,0,1-1.93-3A14.33,14.33,0,0,1,4.64,36ZM51.22,15A18.7,18.7,0,0,0,50,8.73a12.68,12.68,0,0,0-3-4.56,12.68,12.68,0,0,0-4.56-3A19,19,0,0,0,36.23,0H15A19,19,0,0,0,8.73,1.2a12.68,12.68,0,0,0-4.56,3,12.68,12.68,0,0,0-3,4.56A19,19,0,0,0,0,15V36.23a19,19,0,0,0,1.2,6.26,12.68,12.68,0,0,0,3,4.56,12.68,12.68,0,0,0,4.56,3A18.7,18.7,0,0,0,15,51.22H36.23A18.7,18.7,0,0,0,42.49,50,13.17,13.17,0,0,0,50,42.49a18.7,18.7,0,0,0,1.2-6.26Z"/><path class="cls-1" d="M25.61,12.38A13.23,13.23,0,1,0,38.84,25.61,13.23,13.23,0,0,0,25.61,12.38Zm0,21.82a8.59,8.59,0,1,1,8.59-8.59A8.6,8.6,0,0,1,25.61,34.2Z"/><circle class="cls-1" cx="39.36" cy="11.86" r="3.09"/></g></g></svg>