<svg xmlns="http://www.w3.org/2000/svg" width="51.67" height="41.97" viewBox="0 0 51.67 41.97"><defs><style>.cls-1{fill:#d1d1d1;}</style></defs><g id="レイヤー_2" data-name="レイヤー 2"><g id="レイアウト"><path class="cls-1" d="M46.36,10.46c0,.46,0,.92,0,1.38,0,14-10.65,30.13-30.13,30.13A29.9,29.9,0,0,1,0,37.21a21.51,21.51,0,0,0,2.56.13,21.23,21.23,0,0,0,13.15-4.52A10.63,10.63,0,0,1,5.8,25.48a14.58,14.58,0,0,0,2,.16,11.17,11.17,0,0,0,2.79-.36A10.59,10.59,0,0,1,2.1,14.89v-.14A10.69,10.69,0,0,0,6.89,16.1,10.59,10.59,0,0,1,3.61,1.93,30.09,30.09,0,0,0,25.44,13a12.3,12.3,0,0,1-.26-2.43A10.6,10.6,0,0,1,43.51,3.34,20.7,20.7,0,0,0,50.23.79a10.55,10.55,0,0,1-4.66,5.83A21.16,21.16,0,0,0,51.67,5a22.65,22.65,0,0,1-5.31,5.48Z"/></g></g></svg>