<?xml version="1.0" encoding="UTF-8"?><svg xmlns="http://www.w3.org/2000/svg" width="26.11" height="26.11" viewBox="0 0 26.11 26.11"><defs><style>.e{fill:#fff;}</style></defs><g id="a"/><g id="b"><g id="c"><path id="d" class="e" d="M20.45,26.11H5.66c-3.12,0-5.66-2.53-5.66-5.66V5.66C0,2.53,2.53,0,5.66,0h14.8c3.12,0,5.66,2.53,5.66,5.66v14.8c0,3.12-2.53,5.66-5.66,5.66Zm2.07-14.2c0-4.25-4.26-7.72-9.51-7.72S3.51,7.65,3.51,11.91c0,3.81,3.38,7.01,7.95,7.61,.31,.07,.73,.2,.84,.47,.1,.24,.06,.62,.03,.86,0,0-.11,.67-.14,.81-.04,.24-.19,.94,.82,.51,1.01-.43,5.48-3.22,7.47-5.52h0c1.38-1.51,2.04-3.04,2.04-4.75m-11.44-2.06h-.67c-.1,0-.19,.08-.19,.18v4.14c0,.1,.08,.18,.19,.18h.67c.1,0,.19-.08,.19-.18v-4.14c0-.1-.08-.18-.19-.18m4.59,0h-.67c-.1,0-.19,.08-.19,.18v2.46l-1.9-2.56v-.02h-.03v-.02h-.02v-.02h-.03v-.02h-.75c-.1-.01-.19,.07-.19,.17v4.14c0,.1,.08,.18,.19,.18h.67c.1,0,.19-.08,.19-.18v-2.46l1.9,2.57s.03,.03,.05,.05h.02v.02h.04s.03,.02,.05,.02h.67c.1,0,.19-.08,.19-.18v-4.14c0-.1-.08-.18-.19-.18m-6.2,3.47h-1.81v-3.29c0-.1-.08-.19-.19-.19h-.67c-.1,0-.19,.08-.19,.19v4.14h0s.02,.09,.05,.13h0s.08,.06,.13,.06h2.66c.1,0,.18-.08,.18-.19v-.67c0-.1-.08-.19-.18-.19m9.88-2.44c.1,0,.18-.08,.18-.19v-.67c0-.1-.08-.19-.18-.19h-2.66s-.09,.02-.13,.05h0s-.05,.08-.05,.13h0v4.14h0s.02,.09,.05,.13h0s.08,.06,.13,.06h2.66c.1,0,.18-.08,.18-.19v-.67c0-.1-.08-.19-.18-.19h-1.81v-.7h1.81c.1,0,.18-.08,.18-.19v-.67c0-.1-.08-.19-.18-.19h-1.81v-.7h1.81Z"/></g></g></svg>