<?xml version="1.0" encoding="UTF-8"?><svg xmlns="http://www.w3.org/2000/svg" width="25.57" height="25.57" viewBox="0 0 25.57 25.57"><defs><style>.d{fill:#fff;}</style></defs><g id="a"/><g id="b"><g id="c"><g><path class="d" d="M2.32,7.59c.06-1.25,.27-1.94,.44-2.39,.23-.6,.51-1.03,.96-1.48,.45-.45,.88-.73,1.48-.96,.45-.18,1.13-.39,2.39-.44h10.4c1.25,.06,1.94,.27,2.39,.44,.6,.23,1.03,.51,1.48,.96,.45,.45,.73,.88,.96,1.48,.18,.45,.39,1.13,.44,2.39v10.4c-.06,1.25-.27,1.94-.44,2.39-.23,.6-.51,1.03-.96,1.48s-.88,.73-1.48,.96c-.45,.18-1.13,.39-2.39,.44H7.59c-1.25-.06-1.94-.27-2.39-.44-.6-.23-1.03-.51-1.48-.96-.45-.45-.73-.88-.96-1.48-.18-.45-.39-1.13-.44-2.39V7.59Zm23.26-.11c-.06-1.37-.28-2.3-.6-3.12-.33-.85-.77-1.56-1.48-2.28-.72-.72-1.43-1.15-2.28-1.48-.82-.32-1.75-.54-3.12-.6H7.48c-1.37,.06-2.3,.28-3.12,.6-.85,.33-1.56,.77-2.28,1.48-.72,.72-1.15,1.43-1.48,2.28-.32,.82-.54,1.75-.6,3.12v10.61c.06,1.37,.28,2.3,.6,3.12,.33,.85,.77,1.56,1.48,2.28,.72,.72,1.43,1.15,2.28,1.48,.82,.32,1.75,.54,3.12,.6h10.61c1.37-.06,2.3-.28,3.12-.6,.85-.33,1.56-.77,2.28-1.48,.72-.72,1.15-1.43,1.48-2.28,.32-.82,.54-1.75,.6-3.12V7.48Z"/><path class="d" d="M12.79,6.18c-3.65,0-6.61,2.96-6.61,6.61s2.96,6.61,6.61,6.61,6.61-2.96,6.61-6.61-2.96-6.61-6.61-6.61Zm0,10.89c-2.37,0-4.29-1.92-4.29-4.29s1.92-4.29,4.29-4.29,4.29,1.92,4.29,4.29-1.92,4.29-4.29,4.29Z"/><circle class="d" cx="19.65" cy="5.92" r="1.54"/></g></g></g></svg>