<?xml version="1.0" encoding="UTF-8"?><svg xmlns="http://www.w3.org/2000/svg" width="28.07" height="22.8" viewBox="0 0 28.07 22.8"><defs><style>.d{fill:#fff;}</style></defs><g id="a"/><g id="b"><g id="c"><path class="d" d="M25.18,5.68c.02,.25,.02,.5,.02,.75,0,7.61-5.79,16.37-16.37,16.37-3.26,0-6.29-.94-8.83-2.58,.46,.05,.91,.07,1.39,.07,2.69,0,5.17-.91,7.14-2.46-2.53-.05-4.65-1.71-5.38-3.99,.36,.05,.71,.09,1.09,.09,.52,0,1.03-.07,1.51-.2-2.64-.53-4.61-2.85-4.61-5.65v-.07c.77,.43,1.66,.69,2.6,.73-1.55-1.03-2.56-2.8-2.56-4.79,0-1.07,.28-2.05,.78-2.9,2.83,3.49,7.09,5.77,11.86,6.02-.09-.43-.14-.87-.14-1.32,0-3.17,2.56-5.75,5.75-5.75,1.66,0,3.15,.69,4.2,1.82,1.3-.25,2.55-.73,3.65-1.39-.43,1.34-1.34,2.46-2.53,3.17,1.16-.12,2.28-.45,3.31-.89-.78,1.14-1.76,2.15-2.89,2.97h0Z"/></g></g></svg>