<?xml version="1.0" encoding="UTF-8"?><svg xmlns="http://www.w3.org/2000/svg" width="211.37" height="38.11" viewBox="0 0 211.37 38.11"><defs><style>.d{fill:#fff;}.e{fill:#ad9670;}</style></defs><g id="a"/><g id="b"><g id="c"><g><path class="d" d="M26.16,35.74c-1.22,.39-2.24,.59-3.12,.59-2.71,0-3.8-1.89-4.62-4.74l-1.23-4.42c5.81-.01,9.41-4.35,9.41-8.36,0-5.14-3.65-7.75-10.84-7.75H0v26.37H1.78v-10.25H15.34l1.38,4.89c.83,2.99,2.24,6.05,6.32,6.05,1.07,0,2.2-.2,3.44-.6l.35-.11v-1.87l-.67,.22ZM1.78,12.83H15.76c6.1,0,9.06,1.95,9.06,5.97,0,3.16-2.92,6.58-7.65,6.58H1.78V12.83Z"/><polygon class="d" points="56.78 35.72 56.78 24.92 75.49 24.92 75.49 23.14 56.78 23.14 56.78 12.92 78.66 12.92 78.66 11.13 55.03 11.13 55.03 37.5 79.38 37.5 79.38 35.72 56.78 35.72"/><polygon class="d" points="188.77 35.72 188.77 24.92 207.49 24.92 207.49 23.14 188.77 23.14 188.77 12.92 210.65 12.92 210.65 11.13 187.02 11.13 187.02 37.5 211.37 37.5 211.37 35.72 188.77 35.72"/><path class="d" d="M148.75,22.3c-5.11-.24-10.91-.51-10.91-3.8,0-5.42,7.3-6.85,11.15-6.85,6.32,0,10.37,2.18,11.71,6.32l.17,.54,1.61-.72-.13-.43c-1.43-4.83-6.18-7.49-13.37-7.49-4.81,0-12.94,1.82-12.94,8.63,0,5.03,6.37,5.31,12.53,5.57h.16c5.98,.26,12.16,.53,12.16,4.8,0,5.5-6.15,7.46-11.42,7.46-6.93,0-11.68-2.54-12.38-6.63l-.1-.59-1.75,.61,.09,.43c1.02,5.13,6.04,7.96,14.15,7.96,6.09,0,13.21-2.42,13.21-9.24,0-5.99-8.06-6.33-13.95-6.57Z"/><g><path class="d" d="M105.76,12.95v-.19h0c.11-1.63,.98-5.89,6.98-5.98,.15-1.23,0-2.4-.22-3.21-.64-2.29,.8-3.57,.8-3.57-13.49,4.59-7.57,13.38-7.57,13.38,0,0-.01-.17,0-.44Z"/><path class="e" d="M105.77,12.76h0v.19c-.01,.27,0,.44,0,.44v24.12h1.78V13.46c4.42,1.1,6.37-2.35,6.83-4.17,.47-1.84,1.98-2.16,1.98-2.16-9.32-1.85-10.47,3.71-10.59,5.62Z"/></g></g></g></g></svg>