<?xml version="1.0" encoding="UTF-8"?><svg xmlns="http://www.w3.org/2000/svg" width="371.9" height="207.08" viewBox="0 0 371.9 207.08"><defs><style>.d{fill:#fff;}.e{fill:#b29a71;}.f{fill:#231614;}</style></defs><g id="a"/><g id="b"><g id="c"><g><g><path class="e" d="M173.7,164.55c.23,.45,.5,.96,.86,1.35-.25,.74-.51,1.47-.8,2.19-.29,.72-.3,1.11,.08,1.75,.64,1.1,1.32,2.18,1.95,3.29,.8,1.41,1.05,3.09,2.14,4.32,1.06,1.2,2.77,1.77,3.69,3.07,1,1.41,.18,3.31-.15,4.81-.19,.86-.32,1.75-.23,2.63,.11,1.03,.58,1.85,1.06,2.74,1.44,2.68-.17,6.74-2.17,8.73-.03,.03-.05,.05-.08,.07-.27,0-.54-.02-.81-.07-.77-.14-1.53-.41-2.25-.72-1.67-.72-3.3-1.71-4.66-2.92-.52-.46-1.04-.96-1.39-1.57-.14-.24-.21-.33-.24-.6,.02,.17,.03-.35,.05-.48,.07-.39,.2-.77,.28-1.15,.53-2.62-1.34-4.49-3.59-5.46-1.14-.49-2.44-.84-3.42-1.63-1.03-.83-1.36-2.22-2.21-3.2-.38-.43-.85-.76-1.35-1.04-.48-.26-1.08-.46-1.46-.86-.41-.43-.37-1.05-.38-1.61-.02-.84-.02-1.68-.02-2.52,0-1.63,.06-3.25,.14-4.88,.03-.65,.28-1.57-.13-2.13-.3-.41-.86-.73-1.3-.96-.94-.47-1.96-.72-2.96-1.05-.93-.31-1.82-.74-2.07-1.77-.19-.78-.06-1.62-.09-2.41-.03-.81-.2-1.59-.38-2.37-.37-1.67-.02-2.94,.72-4.45,.41-.84,.76-1.67,1.07-2.55,.16-.45,.33-.91,.5-1.36,.25,.02,.5,.06,.77,.12,.77,.19,1.52,.44,2.3,.57,.69,.11,1.4,.14,2.09,.3,.64,.16,1.2,.41,1.44,1.06,.26,.67,.37,1.26,.86,1.82,.74,.85,1.81,1.22,2.68,1.9,.99,.78,1.19,2.14,2.28,2.87,.97,.66,2.16,.71,3.29,.71,.96,0,1.91-.08,2.63,.54,.07,.21,.15,.41,.23,.59,.31,.78,.65,1.56,1.05,2.31Zm.82-3.43s.02,.05,.03,.07c.06-.36-.19-.42-.03-.07Zm-21.38-11.75h0Zm-1.91,4.26s-.03,.06-.04,.09c0,.02,0,.01,.04-.09Zm33.56,40.73c-.33,2.02-1.29,4.26-2.74,5.95,.03,.33-.11,.67-.51,.88-.33,.18-.66,.34-.99,.51-.33,.24-.67,.44-1.03,.62-.44,.21-.89,.39-1.35,.53-2.71,1.22-5.52,2.22-8.41,2.94-6.55,1.61-13.69,1.93-20.15-.25-7.02-2.37-12.32-7.64-15.24-14.39-1.69-3.97-2.84-8.15-3.01-12.48-.25-6.57,1.95-12.87,6.02-18,3.5-4.42,8.17-7.74,13.22-10.17,.57-.28,.78-.42,1.37-.67,.28-.18,.44-.24,.63-.27,.27-.09,.33-.12,.53-.19,.08-.03,.16-.07,.24-.1,.37-.15,.79,.04,1.04,.33,.92,.13,1.81,.44,2.72,.65,1.22,.28,2.49,.22,3.65,.76,1.23,.56,1.69,1.43,2.1,2.65,.28,.84,1.16,1.18,1.86,1.62,.86,.54,1.58,1.18,2.08,2.07,.52,.94,.91,1.5,2.01,1.58,1.93,.14,3.95-.24,5.35,1.44,.2,.24,.52,.87,.63,1.43,.08,.2,.2,.49,.37,.94,.17,.46,.43,.9,.69,1.32,.02,.04,.05,.08,.07,.11,.64,0,1.25,.51,1.01,1.3-.36,1.14-.76,2.27-1.2,3.38,.52,.92,1.09,1.82,1.62,2.73,.31,.53,.62,1.06,.87,1.62,.47,1.06,.66,2.19,1.55,2.99,1.24,1.12,2.84,1.72,3.79,3.17,1.01,1.55,.71,3.42,.32,5.12-.2,.84-.46,1.69-.51,2.56-.06,1.02,.31,1.67,.79,2.55,.8,1.49,.88,3.13,.61,4.77Zm-7.6,6.68c-.96-.37-2.05-.91-2.8-1.33-1.19-.65-2.51-1.47-3.61-2.47-.72-.65-1.34-1.39-1.75-2.21-.23-.45-.39-.93-.4-1.44-.02-.92,.52-1.8,.46-2.71-.11-1.67-2.27-2.42-3.56-2.93-1.66-.67-3.16-1.43-4.13-3-.48-.79-.8-1.73-1.59-2.28-.65-.45-1.41-.69-2.02-1.2-1.52-1.24-1.25-3.37-1.25-5.13,0-2.2,.07-4.4,.21-6.6-1.51-1.07-3.64-1.01-5.12-2.21-.99-.8-1.4-1.96-1.48-3.2-.04-.67,.02-1.33-.02-2-.02-.29-.07-.57-.12-.85-.09-.43-.19-.85-.28-1.29-.25-1.32-.21-2.59,.26-3.86,.25-.67,.57-1.31,.88-1.95,.11-.22,.22-.43,.32-.66,0,.02,0,.01,.04-.09-.01,.03-.03,.06-.04,.09,.02-.05,.1-.24,.11-.28,.13-.36,.26-.73,.39-1.09l.05-.14c-1.67,.79-3.3,1.69-4.85,2.7-.75,.48-1.48,.99-2.19,1.53-4.68,3.52-8.51,8.32-10.23,13.97-1.06,3.47-1.26,7.06-.82,10.58,.39,3.13,1.27,6.21,2.5,9.13,1.61,3.72,3.91,7.09,7.07,9.66,.31,.25,.62,.49,.94,.72,7.53,5.5,17.5,5.51,26.47,2.94,2.27-.65,4.48-1.46,6.57-2.39Z"/><path class="f" d="M245.83,177.11c-.81-6.36-4.11-12.29-7.97-17.3-3.93-5.1-8.83-9.45-14.34-12.79-1.34-.81-2.72-1.55-4.13-2.24-.05-.02-.1-.04-.15-.06-.03-.02-.06-.03-.09-.05-.68-.27-1.5,.09-2.11,.38-.87,.41-1.69,.96-2.47,1.52-1.45,1.03-2.97,2.14-4.2,3.44-.32,.35-.57,.72-.71,1.18-.19,.6-.04,1.49-.47,1.98-.33,.37-.97,.46-1.42,.6-.61,.18-1.22,.39-1.75,.75-1.24,.87-1.34,2.32-2.1,3.51-.44,.7-.63,1.17-.57,2.02,.04,.59-.1,1.06-.4,1.57-.64,1.11-1.69,2.1-2.83,2.7-.58,.31-1.25,.43-1.8,.8-.71,.48-.99,1.24-1.32,1.99-.72,1.67-1.5,3.33-2.17,5.02-.6,1.51-.42,2.91,.91,3.92,.39,.29,1.01,.57,1.03,1.11,.03,.57-.43,1.21-.69,1.68-.68,1.23-1.12,2.33-.92,3.76,.19,1.38,1,2.85,.65,4.26-.21,.83-.63,1.61-.83,2.45-.21,.87-.24,1.75-.04,2.63,.34,1.51,1.16,3.03,1.86,4.4,.63,1.24,1.41,2.46,2.46,3.39,2.38,2.1,5.77,2.52,8.79,2.99,6.89,1.06,13.95,1.21,20.65-.99,5.23-1.72,10.04-4.79,13.3-9.29,3.16-4.37,4.53-9.98,3.85-15.32Zm-3.49,10.58c-2.04,4.7-5.92,8.26-10.46,10.52-5.46,2.72-11.73,3.51-17.77,3.16-3.22-.19-6.57-.62-9.7-1.42-1.36-.35-2.75-.8-3.81-1.77-.98-.9-1.64-2.05-2.22-3.24-.63-1.28-1.59-2.87-1.56-4.33,.04-1.58,1.13-2.92,1.1-4.52-.02-1.39-.7-2.66-.79-4.03-.08-1.22,.75-2.15,1.23-3.21,.51-1.14,.68-2.42-.19-3.44-.36-.42-.84-.69-1.27-1.04-.65-.53-.32-1.19-.04-1.87,.7-1.67,1.42-3.33,2.16-4.98,.31-.7,.65-.83,1.34-1.1,.56-.22,1.08-.5,1.58-.85,1.03-.74,1.97-1.65,2.65-2.73,.31-.49,.58-1.05,.71-1.62,.13-.55-.09-1.3,.12-1.78,.12-.28,.36-.53,.5-.81,.15-.3,.27-.62,.39-.93,.21-.55,.39-1.17,.9-1.53,.93-.64,2.18-.59,3.1-1.29,.45-.34,.78-.79,.97-1.32,.21-.6,.08-1.37,.38-1.93,.26-.47,.92-.9,1.32-1.24,1.4-1.2,2.89-2.37,4.5-3.27,.29-.16,.56-.3,.84-.41,.04-.01,.14-.05,.21-.07,5.39,2.64,10.28,6.23,14.42,10.58,4.2,4.41,7.86,9.76,9.79,15.58,1.62,4.87,1.65,10.14-.41,14.89Z"/><path class="d" d="M182.28,190.7c-.48-.89-.95-1.71-1.06-2.74-.09-.88,.05-1.77,.23-2.63,.33-1.5,1.15-3.4,.15-4.81-.93-1.3-2.63-1.87-3.69-3.07-1.09-1.24-1.34-2.91-2.14-4.32-.63-1.11-1.3-2.19-1.95-3.29-.38-.64-.37-1.03-.08-1.75,.29-.72,.52-1.36,.77-2.1-.36-.39-.59-.99-.83-1.44-.39-.75-.73-1.52-1.05-2.31-.07-.18-.16-.39-.23-.59-.72-.62-1.67-.55-2.63-.54-1.13,0-2.32-.05-3.29-.71-1.08-.74-1.29-2.09-2.28-2.87-.87-.68-1.94-1.05-2.68-1.9-.49-.56-.6-1.15-.86-1.82-.25-.64-.8-.9-1.44-1.06-.68-.17-1.39-.19-2.09-.3-.78-.13-1.53-.39-2.3-.57-.27-.06-.52-.1-.77-.12-.17,.45-.34,.9-.5,1.36-.32,.88-.66,1.71-1.07,2.55-.74,1.51-1.09,2.77-.72,4.45,.17,.79,.35,1.57,.38,2.37,.03,.79-.1,1.63,.09,2.41,.25,1.03,1.14,1.46,2.07,1.77,.99,.33,2.02,.58,2.96,1.05,.45,.23,1.01,.54,1.3,.96,.41,.56,.16,1.48,.13,2.13-.09,1.62-.13,3.25-.14,4.88,0,.84,0,1.68,.02,2.52,.01,.56-.03,1.18,.38,1.61,.38,.4,.98,.6,1.46,.86,.5,.27,.97,.61,1.35,1.04,.86,.98,1.18,2.37,2.21,3.2,.98,.79,2.28,1.13,3.42,1.63,2.25,.97,4.13,2.84,3.59,5.46-.08,.39-.22,.76-.28,1.15-.02,.13-.03,.65-.05,.48,.03,.27,.1,.37,.24,.6,.35,.6,.87,1.11,1.39,1.57,1.36,1.21,2.99,2.2,4.66,2.92,.72,.31,1.48,.58,2.25,.72,.27,.05,.54,.08,.81,.07,0,0,0,0,0,0h0s0,0,0,0c.03-.03,.05-.05,.08-.07,1.99-1.99,3.61-6.05,2.17-8.73Z"/></g><g><g><path class="f" d="M73.81,107.34c-1.58,0-3.17-.56-4.04-1.31l-.33-2.03,.17-.06c1,1.85,2.65,2.76,4.25,2.76,1.95,0,3.19-1.2,3.19-2.86s-1.35-2.51-3.5-3.44c-2.26-1-3.67-1.91-3.67-3.84,0-2.28,1.89-3.53,4.21-3.53,1.56,0,2.67,.37,3.42,1.02l.19,1.72-.15,.08c-.83-1.64-2.12-2.18-3.57-2.18-1.56,0-2.78,.89-2.78,2.3s1.12,2.12,3.21,2.97c2.28,.95,4.04,1.93,4.04,4.44s-2.03,3.96-4.65,3.96Z"/><path class="f" d="M89.88,106.97l-.02,.08c-.35-.04-.73-.06-1.16-.06-.37,0-.75,.02-1.14,.06-1.14-1.35-2.65-2.92-3.67-3.9l-.5,.44c0,.58,.02,1.89,.04,2.51,.02,.52,.27,.73,.62,.87l-.02,.08c-.41-.04-.83-.06-1.31-.06s-.89,.02-1.31,.06l-.02-.08c.37-.15,.62-.35,.64-.87,.02-.62,.04-1.97,.04-5.91,0-3.46-.02-4.81-.04-5.54-.02-.6-.35-.77-.68-.85v-.08c.79-.12,1.51-.37,2.05-.71l.08,.02c-.08,1.16-.1,3.28-.1,7.15v2.9c1.04-.93,2.59-2.38,3.42-3.28,.19,.02,.6,.04,.95,.04,.37,0,.75-.02,.89-.04l.02,.08c-1.27,.68-2.51,1.51-3.82,2.49,.62,.68,1.41,1.53,2.07,2.2,1.62,1.58,2.36,2.24,2.94,2.38Z"/><path class="f" d="M94.53,107.05c-.42-.04-.83-.06-1.31-.06s-.89,.02-1.31,.06l-.02-.08c.37-.15,.62-.35,.64-.87,.02-.62,.04-1.97,.04-2.8,0-.75-.02-1.56-.04-2.11-.02-.6-.35-.77-.68-.85v-.08c.79-.12,1.51-.37,2.05-.71l.08,.02c-.08,1.16-.1,2.34-.1,3.53,0,1.04,.02,2.38,.04,3.01,.02,.52,.27,.73,.62,.87l-.02,.08Zm-1.39-9.46c-.5,0-.89-.41-.89-.89,0-.52,.39-.91,.89-.91s.91,.39,.91,.91c0,.48-.39,.89-.91,.89Z"/><path class="f" d="M105.4,107.05c-.42-.04-.83-.06-1.31-.06s-.89,.02-1.31,.06l-.02-.08c.35-.15,.62-.35,.64-.87,.02-.62,.04-1.97,.04-3.11,0-2.09-.64-2.88-1.97-2.88-1.24,0-2.24,.77-2.59,2.05v.93c0,1.04,.02,2.38,.04,3.01,.02,.52,.27,.73,.62,.87l-.02,.08c-.41-.04-.83-.06-1.31-.06s-.89,.02-1.31,.06l-.02-.08c.37-.15,.62-.35,.64-.87,.02-.62,.04-1.97,.04-2.9,0-.64-.02-1.45-.04-2.01-.02-.6-.35-.77-.68-.85v-.08c.79-.12,1.51-.37,2.05-.71l.08,.02c-.06,.87-.1,1.51-.1,1.76,.37-.95,1.45-1.76,2.82-1.76,2.28,0,3.05,1.37,3.05,3.42,0,1.14,.02,2.49,.04,3.11,.02,.52,.27,.73,.62,.87l-.02,.08Z"/><path class="f" d="M121.51,106.59c-.79,.1-1.51,.37-2.03,.71l-.08-.02c.06-.87,.08-1.51,.08-1.76-.37,.93-1.43,1.76-2.8,1.76-2.28,0-3.05-1.37-3.05-3.4,0-1.16-.02-2.51-.04-3.13-.02-.52-.29-.73-.64-.87l.02-.08c.41,.04,.85,.06,1.24,.06,.33,0,.62-.02,.77-.04-.02,.89-.06,2.88-.06,4.04,0,2.09,.66,2.88,1.97,2.88s2.26-.79,2.61-2.07v-.91c0-1.04-.02-2.38-.04-3.01-.02-.52-.29-.73-.64-.87l.02-.08c.41,.04,.85,.06,1.24,.06,.35,0,.62-.02,.79-.04-.04,1.12-.08,2.9-.08,3.84,0,.62,.02,1.45,.04,1.99,.02,.6,.35,.77,.68,.87v.08Z"/><path class="f" d="M128.04,107.3c-.85,0-1.66-.25-2.34-.68,0,1.49,.02,2.84,.04,3.46,.02,.5,.27,.73,.62,.87l-.02,.08c-.42-.04-.83-.06-1.31-.06s-.89,.02-1.31,.06l-.02-.08c.37-.15,.62-.35,.64-.87,.02-.62,.04-1.97,.04-3.96s-.02-4.38-.04-4.94c-.02-.6-.35-.77-.68-.85v-.08c.79-.12,1.51-.37,2.05-.71l.08,.02-.08,.87c.58-.41,1.49-.87,2.53-.87,2.01,0,3.84,1.37,3.84,3.86s-1.83,3.88-4.04,3.88Zm-.21-7.15c-.87,0-1.62,.35-2.09,.75-.02,.71-.04,2.36-.04,3.88v1.37c.54,.41,1.18,.68,2.09,.68,1.66,0,2.8-1.33,2.8-3.4,0-1.82-1.06-3.28-2.76-3.28Z"/><path class="f" d="M155.5,106.94l-.02,.12c-.39-.06-1-.08-1.45-.08s-1.06,.02-1.47,.06l-.02-.1c.46-.19,.62-.37,.64-.93,.02-.62,.04-2.61,.04-5.83,0-2.78,0-4.48,.02-5.62-1.64,3.65-3.38,7.55-5.41,12.21h-.46c-1.35-3.05-4.46-9.66-5.72-12.19,.04,1.33,.06,2.76,.06,5.6,0,3.11,.08,4.87,.15,5.91,.04,.54,.31,.71,.64,.85l-.02,.1c-.33-.04-.71-.06-1.04-.06-.31,0-.68,.02-1.08,.06l-.02-.1c.35-.15,.62-.31,.64-.85,.08-1.04,.12-2.7,.12-5.91s-.02-5.23-.04-5.83c-.02-.56-.19-.75-.64-.93l.02-.1c.41,.04,.89,.06,1.33,.06s.95-.02,1.16-.04c1.53,3.57,3.69,8.23,5.14,11.22,1.43-3.11,3.73-8.27,5.02-11.22,.27,.02,.68,.04,1.12,.04,.39,0,.87-.02,1.27-.06l.02,.1c-.46,.17-.62,.37-.64,.91-.02,.62-.04,2.61-.04,5.85s.02,5.21,.04,5.83c.02,.56,.19,.75,.64,.93Z"/><path class="f" d="M160.12,102.17c-.08,.37-.12,.79-.12,1.24,0,1.91,1.31,3.15,2.97,3.15,1.14,0,1.78-.25,2.53-.81v.23c-.5,.58-1.64,1.31-2.94,1.31-2.14,0-4.04-1.45-4.04-3.88s1.8-3.86,4.04-3.86c1.95,0,3.36,1.06,3.36,2.61h-5.79Zm4.13-.6c0-.91-.56-1.53-1.7-1.53-1.24,0-1.99,.64-2.34,1.72l4.04-.19Z"/><path class="f" d="M181.84,107.05c-.41-.04-.83-.06-1.31-.06s-.89,.02-1.31,.06l-.02-.08c.35-.15,.62-.35,.64-.87,.02-.62,.04-1.97,.04-3.11,0-1.95-.39-2.88-1.82-2.88-1.27,0-2.36,.89-2.47,2.57v.56c0,.89,.02,2.24,.04,2.86,.02,.52,.27,.73,.62,.87l-.02,.08c-.41-.04-.83-.06-1.31-.06s-.89,.02-1.31,.06l-.02-.08c.35-.15,.62-.35,.64-.87,.02-.62,.04-1.97,.04-3.11,0-2.09-.6-2.88-1.82-2.88-1.12,0-2.14,.77-2.47,2.05v.93c0,.97,.02,2.38,.04,3.01,.02,.52,.27,.73,.62,.87l-.02,.08c-.42-.04-.83-.06-1.31-.06s-.89,.02-1.31,.06l-.02-.08c.37-.15,.62-.35,.64-.87,.02-.62,.04-2.12,.04-3.01,0-.54-.02-1.35-.04-1.91-.02-.6-.35-.77-.68-.85v-.08c.79-.12,1.51-.37,2.05-.71l.08,.02c-.06,.87-.1,1.51-.1,1.76,.35-.93,1.41-1.76,2.7-1.76,1.66,0,2.43,.81,2.76,2.03,.35-1.26,1.47-2.03,2.84-2.03,2.16,0,2.9,1.37,2.9,3.42,0,1.14,.02,2.49,.04,3.11,.02,.52,.27,.73,.62,.87l-.02,.08Z"/><path class="f" d="M188.29,107.3c-.79,0-1.51-.21-2.2-.58-.52,.1-1.06,.31-1.47,.58l-.08-.04c.08-1.16,.1-3.55,.1-7.07s-.02-4.79-.04-5.54c-.02-.6-.35-.77-.68-.85v-.08c.79-.12,1.51-.37,2.05-.71l.08,.02c-.08,1.16-.1,3.28-.1,7.15v.29c.58-.46,1.51-.91,2.53-.91,2.03,0,3.86,1.37,3.86,3.86s-1.83,3.88-4.04,3.88Zm-.21-7.15c-.89,0-1.62,.35-2.14,.79,0,2.61,.02,4.31,.04,4.73,.02,.33,.1,.52,.23,.66,.54,.35,1.1,.5,1.82,.5,1.66,0,2.8-1.33,2.8-3.4,0-1.82-1.06-3.28-2.76-3.28Z"/><path class="f" d="M196.46,102.17c-.08,.37-.12,.79-.12,1.24,0,1.91,1.31,3.15,2.97,3.15,1.14,0,1.78-.25,2.53-.81v.23c-.5,.58-1.64,1.31-2.95,1.31-2.14,0-4.04-1.45-4.04-3.88s1.8-3.86,4.04-3.86c1.95,0,3.36,1.06,3.36,2.61h-5.79Zm4.13-.6c0-.91-.56-1.53-1.7-1.53-1.24,0-1.99,.64-2.34,1.72l4.04-.19Z"/><path class="f" d="M209.63,101.35l-.08,.02c-.23-.48-.77-.87-1.45-.87-.89,0-1.41,.48-1.76,1.39v1.2c0,1.04,.02,2.38,.04,3.01,.02,.52,.27,.73,.62,.87l-.02,.08c-.41-.04-.83-.06-1.31-.06s-.89,.02-1.31,.06l-.02-.08c.37-.15,.62-.35,.64-.87,.02-.62,.04-1.97,.04-2.9,0-.64-.02-1.45-.04-2.01-.02-.6-.35-.77-.68-.85v-.08c.79-.12,1.51-.37,2.05-.71l.08,.02c-.06,.77-.1,1.35-.1,1.66,.46-1.02,1.26-1.66,2.24-1.66,.37,0,.87,.12,1.06,.39v1.39Z"/><path class="f" d="M212.23,98.9l-.17-.25c.95-.73,1.43-1.74,1.43-2.74,0-.29-.04-.58-.15-.83-.12,.12-.35,.19-.48,.19-.56,0-1.04-.48-1.04-1.04s.48-1.02,1.04-1.02c1,0,1.29,1.14,1.29,2.07,0,1.35-.71,2.72-1.93,3.61Z"/><path class="f" d="M218.77,107.3c-1.04,0-2.22-.37-2.76-.77l-.29-1.39,.1-.04c.66,1.12,1.74,1.72,2.99,1.72s1.89-.5,1.89-1.35c0-.77-.39-1.12-2.14-1.62-1.85-.52-2.55-1.1-2.55-2.2,0-1.39,1.35-2.09,2.74-2.09,1.08,0,1.91,.23,2.38,.58l.25,1.22-.08,.06c-.64-1.06-1.45-1.43-2.51-1.43-.91,0-1.7,.41-1.7,1.16s.52,1.06,2.01,1.47c2.03,.56,2.72,1.18,2.72,2.43,0,1.35-1.33,2.24-3.05,2.24Z"/><path class="f" d="M234.43,107.34c-1.58,0-3.17-.56-4.04-1.31l-.33-2.03,.17-.06c1,1.85,2.65,2.76,4.25,2.76,1.95,0,3.19-1.2,3.19-2.86s-1.35-2.51-3.5-3.44c-2.26-1-3.67-1.91-3.67-3.84,0-2.28,1.89-3.53,4.21-3.53,1.55,0,2.67,.37,3.42,1.02l.19,1.72-.14,.08c-.83-1.64-2.12-2.18-3.57-2.18-1.55,0-2.78,.89-2.78,2.3s1.12,2.12,3.21,2.97c2.28,.95,4.04,1.93,4.04,4.44s-2.03,3.96-4.65,3.96Z"/><path class="f" d="M255.63,106.94l-.02,.1c-.52-.04-1.14-.06-1.66-.06s-1.2,.02-1.74,.08l-.04-.12c.58-.21,.75-.44,.5-.95-.23-.54-.79-1.76-1.47-3.23h-6.72c-.54,1.22-1.02,2.3-1.31,3.01-.27,.68-.08,.97,.52,1.18l-.02,.12c-.44-.06-.93-.08-1.33-.08-.48,0-.89,.02-1.29,.06l-.02-.1c.39-.12,.83-.41,1.12-1.02,1.43-2.86,4.27-8.79,6.01-12.75h.29c1.58,3.48,4.73,10.18,5.95,12.59,.31,.6,.81,1.06,1.22,1.18Zm-4.73-4.83c-1.1-2.38-2.41-5.18-3.13-6.7-.79,1.68-2.01,4.38-3.03,6.7h6.16Z"/><path class="f" d="M267.41,105.35c-.21,.41-.54,1.14-.73,1.64h-6.49c-.83,0-1.41,.02-1.83,.06l-.02-.1c.46-.19,.62-.37,.64-.93,.02-.62,.04-2.61,.04-5.83s-.02-5.23-.04-5.83c-.02-.56-.19-.75-.64-.93l.02-.1c.42,.04,1,.06,1.47,.06s1.06-.02,1.45-.06l.02,.1c-.46,.17-.62,.37-.64,.91-.02,.62-.04,2.61-.04,5.85s.02,4.96,.04,6.3h1.39c2.26,0,3.9-.21,5.25-1.22l.1,.08Z"/><path class="f" d="M277.05,107.34c-4.02,0-7.46-2.82-7.46-7.15s3.44-7.15,7.46-7.15,7.44,2.8,7.44,7.15-3.44,7.15-7.44,7.15Zm0-13.67c-3.36,0-5.7,2.45-5.7,6.51s2.34,6.51,5.7,6.51,5.7-2.47,5.7-6.51-2.36-6.51-5.7-6.51Z"/><path class="f" d="M301.48,93.42c-.35,.12-.62,.29-.64,.85-.06,1.04-.12,2.68-.12,5.91s.02,5.79,.08,7.15h-.42c-4.02-4.69-7.59-8.63-11.16-12.59,.04,1.37,.04,2.84,.04,5.43,0,3.11,.08,4.87,.15,5.91,.04,.54,.31,.71,.64,.85l-.02,.1c-.33-.04-.71-.06-1.04-.06-.31,0-.68,.02-1.08,.06l-.02-.1c.35-.15,.62-.31,.64-.85,.06-1.04,.12-2.7,.12-5.91s-.02-4.96-.04-5.52c-.02-.68-.27-1.04-.77-1.24l.02-.1c.5,.04,.91,.06,1.22,.06,.35,0,.71,0,1.06-.02,3.77,4.35,7.22,8.19,10,11.24-.02-1.16-.04-2.72-.04-4.42,0-3.13-.08-4.87-.15-5.91-.04-.56-.31-.73-.64-.85l.02-.1c.33,.04,.71,.06,1.04,.06,.31,0,.68-.02,1.08-.06l.02,.1Z"/></g><g><path class="f" d="M46.03,62.88c-2.15,.69-3.94,1.03-5.5,1.03-4.76,0-6.69-3.33-8.12-8.34l-2.16-7.78c10.23-.02,16.56-7.65,16.56-14.72,0-9.05-6.42-13.64-19.07-13.64H0v46.4H3.14v-18.04H26.98l2.43,8.6c1.47,5.27,3.94,10.65,11.12,10.65,1.89,0,3.87-.34,6.05-1.05l.62-.2v-3.29l-1.17,.38ZM3.14,22.58H27.73c10.72,0,15.94,3.44,15.94,10.5,0,5.57-5.15,11.58-13.46,11.58H3.14V22.58Z"/><polygon class="f" points="99.89 62.85 99.89 43.85 132.82 43.85 132.82 40.72 99.89 40.72 99.89 22.73 138.39 22.73 138.39 19.59 96.82 19.59 96.82 65.99 139.67 65.99 139.67 62.85 99.89 62.85"/><polygon class="f" points="332.13 62.85 332.13 43.85 365.06 43.85 365.06 40.72 332.13 40.72 332.13 22.73 370.63 22.73 370.63 19.59 329.06 19.59 329.06 65.99 371.9 65.99 371.9 62.85 332.13 62.85"/><path class="f" d="M261.72,39.23c-9-.42-19.2-.9-19.2-6.68,0-9.53,12.84-12.05,19.63-12.05,11.13,0,18.25,3.84,20.61,11.12l.31,.95,2.84-1.26-.22-.76c-2.52-8.5-10.88-13.19-23.53-13.19-8.45,0-22.76,3.2-22.76,15.19,0,8.86,11.2,9.34,22.04,9.81h.29c10.52,.46,21.4,.93,21.4,8.44,0,9.68-10.83,13.12-20.1,13.12-12.19,0-20.54-4.47-21.79-11.66l-.18-1.04-3.08,1.08,.15,.76c1.79,9.03,10.63,14,24.89,14,10.72,0,23.24-4.26,23.24-16.26,0-10.55-14.18-11.13-24.54-11.56Z"/><g><path class="f" d="M186.08,22.78v-.33h.02c.19-2.86,1.72-10.36,12.29-10.52,.27-2.17,.01-4.22-.39-5.65-1.13-4.03,1.41-6.29,1.41-6.29-23.74,8.07-13.32,23.55-13.32,23.55,0,0-.02-.29,0-.77Z"/><path class="e" d="M186.09,22.46h-.02v.33c-.02,.48,0,.77,0,.77v42.44h3.14V23.69c7.77,1.94,11.2-4.13,12.02-7.33,.83-3.25,3.49-3.79,3.49-3.79-16.39-3.25-18.41,6.53-18.63,9.89Z"/></g></g></g></g></g></g></svg>