<?xml version="1.0" encoding="UTF-8"?><svg xmlns="http://www.w3.org/2000/svg" width="41.13" height="41.13" viewBox="0 0 41.13 41.13"><defs><style>.e{fill:#00b900;}</style></defs><g id="a"/><g id="b"><g id="c"><path id="d" class="e" d="M32.22,41.13H8.91c-4.92,0-8.91-3.99-8.91-8.91V8.91C0,3.99,3.99,0,8.91,0h23.31c4.92,0,8.91,3.99,8.91,8.91v23.31c0,4.92-3.99,8.91-8.91,8.91Zm3.25-22.37c0-6.7-6.72-12.15-14.97-12.15S5.52,12.05,5.52,18.75c0,6.01,5.33,11.04,12.52,11.99,.49,.11,1.15,.32,1.32,.74,.15,.38,.1,.97,.05,1.35,0,0-.18,1.06-.21,1.28-.07,.38-.3,1.48,1.3,.81,1.6-.67,8.62-5.08,11.77-8.69h0c2.17-2.38,3.21-4.79,3.21-7.48m-18.02-3.24h-1.05c-.16,0-.29,.13-.29,.29v6.52c0,.16,.13,.29,.29,.29h1.05c.16,0,.29-.13,.29-.29v-6.52c0-.16-.13-.29-.29-.29m7.23,0h-1.05c-.16,0-.29,.13-.29,.29v3.88l-2.99-4.04s-.01-.02-.02-.03h0l-.02-.02h0l-.02-.02h0l-.02-.02h-.02v-.02h-.04l-.02-.02h-1.13c-.16-.01-.29,.12-.29,.28v6.52c0,.16,.13,.29,.29,.29h1.05c.16,0,.29-.13,.29-.29v-3.88l2.99,4.04s.05,.05,.07,.07h.02v.02h.04v.02h.03s.05,.02,.07,.02h1.05c.16,0,.29-.13,.29-.29v-6.52c0-.16-.13-.29-.29-.29m-9.76,5.47h-2.85v-5.18c0-.16-.13-.29-.29-.29h-1.05c-.16,0-.29,.13-.29,.29v6.52h0c0,.08,.03,.15,.08,.2h0c.05,.06,.12,.09,.2,.09h4.2c.16,0,.29-.13,.29-.29v-1.05c0-.16-.13-.29-.29-.29m15.56-3.84c.16,0,.29-.13,.29-.29v-1.05c0-.16-.13-.29-.29-.29h-4.2c-.08,0-.15,.03-.2,.08h0c-.05,.06-.08,.13-.08,.21h0v6.52h0c0,.08,.03,.15,.08,.2h0c.05,.06,.12,.09,.2,.09h4.2c.16,0,.29-.13,.29-.29v-1.05c0-.16-.13-.29-.29-.29h-2.85v-1.1h2.85c.16,0,.29-.13,.29-.29v-1.05c0-.16-.13-.29-.29-.29h-2.85v-1.1h2.85Z"/></g></g></svg>