<?xml version="1.0" encoding="UTF-8"?><svg xmlns="http://www.w3.org/2000/svg" width="58.75" height="58.75" viewBox="0 0 58.75 58.75"><defs><style>.e{fill:#00b900;}</style></defs><g id="a"/><g id="b"><g id="c"><path id="d" class="e" d="M46.02,58.75H12.73c-7.03,0-12.73-5.7-12.73-12.73V12.73C0,5.7,5.7,0,12.73,0H46.02c7.03,0,12.73,5.7,12.73,12.73V46.02c0,7.03-5.7,12.73-12.73,12.73Zm4.65-31.96c0-9.57-9.6-17.36-21.39-17.36S7.89,17.22,7.89,26.79c0,8.58,7.61,15.77,17.89,17.13,.7,.15,1.64,.46,1.88,1.05,.22,.54,.14,1.39,.07,1.93,0,0-.25,1.51-.31,1.83-.09,.54-.43,2.12,1.85,1.15,2.28-.96,12.32-7.25,16.81-12.42h0c3.1-3.4,4.59-6.85,4.59-10.68m-25.74-4.63h-1.5c-.23,0-.42,.19-.42,.42v9.32c0,.23,.19,.42,.42,.42h1.5c.23,0,.42-.19,.42-.42v-9.32c0-.23-.19-.42-.42-.42m10.33,0h-1.5c-.23,0-.42,.19-.42,.42v5.54l-4.27-5.77s-.02-.03-.03-.04h0l-.02-.03h0l-.02-.03h-.01l-.02-.02h-.01l-.02-.02h-.01l-.02-.02h-.04v-.02h-1.61c-.23-.01-.42,.17-.42,.4v9.32c0,.23,.19,.42,.42,.42h1.5c.23,0,.42-.19,.42-.42v-5.54l4.28,5.78s.07,.08,.11,.1h0l.03,.02h.01l.02,.02h.03l.03,.02h0s.07,.02,.11,.02h1.5c.23,0,.42-.19,.42-.42v-9.32c0-.23-.19-.42-.42-.42m-13.94,7.82h-4.08v-7.4c0-.23-.19-.42-.42-.42h-1.5c-.23,0-.42,.19-.42,.42v9.32h0c0,.11,.04,.21,.12,.29h.01c.07,.08,.18,.13,.29,.13h5.99c.23,0,.42-.19,.42-.42v-1.5c0-.23-.19-.42-.42-.42m22.23-5.48c.23,0,.42-.19,.42-.42v-1.5c0-.23-.19-.42-.42-.42h-5.99c-.11,0-.21,.04-.29,.12h-.01c-.07,.09-.12,.19-.12,.3h0v9.32h0c0,.11,.04,.21,.12,.29h.01c.07,.08,.18,.13,.29,.13h5.99c.23,0,.42-.19,.42-.42v-1.5c0-.23-.19-.42-.42-.42h-4.08v-1.58h4.08c.23,0,.42-.19,.42-.42v-1.5c0-.23-.19-.42-.42-.42h-4.08v-1.58h4.08Z"/></g></g></svg>